<?xml version="1.0" encoding="UTF-8" standalone="no"?>
<!-- Created with Inkscape (http://www.inkscape.org/) -->

<svg
   width="64"
   height="64"
   viewBox="0 0 16.933333 16.933333"
   version="1.1"
   id="svg1"
   xml:space="preserve"
   inkscape:version="1.4.2 (f4327f4, 2025-05-13)"
   sodipodi:docname="icon.svg"
   inkscape:export-filename="icon16.png"
   inkscape:export-xdpi="25.1479"
   inkscape:export-ydpi="25.1479"
   xmlns:inkscape="http://www.inkscape.org/namespaces/inkscape"
   xmlns:sodipodi="http://sodipodi.sourceforge.net/DTD/sodipodi-0.dtd"
   xmlns="http://www.w3.org/2000/svg"
   xmlns:svg="http://www.w3.org/2000/svg"><sodipodi:namedview
     id="namedview1"
     pagecolor="#505050"
     bordercolor="#ffffff"
     borderopacity="1"
     inkscape:showpageshadow="0"
     inkscape:pageopacity="0"
     inkscape:pagecheckerboard="1"
     inkscape:deskcolor="#505050"
     inkscape:document-units="px"
     inkscape:zoom="4.7017839"
     inkscape:cx="89.008769"
     inkscape:cy="79.012563"
     inkscape:window-width="1757"
     inkscape:window-height="1161"
     inkscape:window-x="0"
     inkscape:window-y="7"
     inkscape:window-maximized="1"
     inkscape:current-layer="layer1" /><defs
     id="defs1" /><g
     inkscape:label="Warstwa 1"
     inkscape:groupmode="layer"
     id="layer1"><rect
       style="fill:#ffffff;stroke:#f9f9f9;stroke-width:0.0856458;stroke-linecap:round;stroke-linejoin:round"
       id="rect21"
       width="16.074749"
       height="16.074749"
       x="0.42929199"
       y="0.42929199"
       ry="2.2411909" /><path
       style="fill:#000000;fill-opacity:1;stroke:#000000;stroke-width:0.0484755;stroke-linecap:round;stroke-linejoin:round;stroke-opacity:1"
       d="m 13.365404,13.45672 -4.1e-5,0.117764 -4.2e-5,0.117763 0.217,0.0061 0.217001,0.0061 v 0.599815 0.599774 l 0.133822,-0.0064 0.133821,-0.0064 4.3e-5,-0.594169 v -0.594169 h 0.220513 0.220555 l -0.0064,-0.123117 -0.0064,-0.123116 H 13.93038 Z"
       id="path21" /><path
       style="fill:#000000;fill-opacity:1;stroke:#000000;stroke-width:0.0484755;stroke-linecap:round;stroke-linejoin:round;stroke-opacity:1"
       d="m 10.737516,13.446015 v 0.727991 0.727991 h 0.460348 0.460347 V 14.773529 14.64506 l -0.326525,4.1e-5 -0.326526,8.1e-5 0.0069,-0.183713 0.007,-0.183671 0.287467,0.007 0.287467,0.007 -4.2e-5,-0.123117 V 14.045564 H 11.299543 11.005134 V 13.874273 13.70298 h 0.326527 0.326525 v -0.128499 -0.128469 h -0.460319 z"
       id="path20" /><path
       style="fill:#000000;fill-opacity:1;stroke:#000000;stroke-width:0.0484755;stroke-linecap:round;stroke-linejoin:round;stroke-opacity:1"
       d="m 7.4829649,13.443967 -0.1338221,0.0064 -0.1338216,0.0064 -0.00569,0.695706 c -0.00311,0.382635 -10e-4,0.707822 0.00466,0.722639 0.00672,0.01752 0.055462,0.02693 0.1394677,0.02693 h 0.129138 l 4.16e-5,-0.728995 z"
       id="path19" /><path
       style="fill:#000000;fill-opacity:1;stroke:#000000;stroke-width:0.0484755;stroke-linecap:round;stroke-linejoin:round;stroke-opacity:1"
       d="m 12.834299,13.443925 0.0061,0.491796 c 0.0034,0.270467 0.0051,0.490098 0.0038,0.488115 -0.0013,-0.002 -0.14986,-0.222797 -0.33008,-0.490708 l -0.327696,-0.487112 h -0.124956 -0.124914 v 0.729037 0.728995 l 0.133822,-0.0064 0.133822,-0.0064 -0.0027,-0.488743 c -0.0015,-0.268818 0.0038,-0.480791 0.01179,-0.471053 0.008,0.0097 0.158396,0.232488 0.334262,0.495016 l 0.319751,0.477326 0.118098,-0.0063 0.118098,-0.0063 v -0.717198 -0.717285 l -0.134617,-0.0064 z"
       id="path18" /><path
       style="fill:#000000;fill-opacity:1;stroke:#000000;stroke-width:0.0484755;stroke-linecap:round;stroke-linejoin:round;stroke-opacity:1"
       d="m 7.8041791,13.443883 v 0.730083 0.730082 l 0.1338221,-0.0064 0.1338216,-0.0064 -3.236e-4,-0.489203 c -1.619e-4,-0.339744 0.00635,-0.478077 0.021414,-0.45282 0.011925,0.02 0.1575714,0.240149 0.3236402,0.489203 l 0.3019361,0.45282 0.1316466,0.0064 0.1316482,0.0064 V 14.175053 13.446016 H 8.8426091 8.7034345 l -1.619e-4,0.497818 -1.618e-4,0.497817 -0.062019,-0.107057 c -0.03411,-0.05888 -0.1809493,-0.280491 -0.3263161,-0.492465 l -0.2643404,-0.385407 -0.1231167,-0.0064 z"
       id="path17" /><path
       style="fill:#000000;fill-opacity:1;stroke:#000000;stroke-width:0.0484755;stroke-linecap:round;stroke-linejoin:round;stroke-opacity:1"
       d="m 9.2815316,13.440371 v 0.733804 0.733763 l 0.342668,-0.01079 c 0.331999,-0.01046 0.347064,-0.01294 0.4818444,-0.07929 0.257834,-0.126931 0.364927,-0.340355 0.349359,-0.696293 -0.0103,-0.235481 -0.0773,-0.396106 -0.214157,-0.513248 -0.137691,-0.117859 -0.2412784,-0.143913 -0.6224824,-0.156656 z m 0.27835,0.24117 h 0.164518 c 0.211691,0 0.3203184,0.04876 0.3935634,0.176645 0.04567,0.07975 0.05215,0.117468 0.05215,0.305114 0,0.188713 -0.0064,0.225424 -0.05353,0.309379 -0.0761,0.135416 -0.1618364,0.178462 -0.3782144,0.189819 l -0.178486,0.0094 v -0.495182 z"
       id="path16" /><path
       style="fill:#000000;fill-opacity:1;stroke:#000000;stroke-width:0.0484755;stroke-linecap:round;stroke-linejoin:round;stroke-opacity:1"
       d="m 3.4361894,10.875798 -0.460975,0.0058 -0.460975,0.0058 3.322e-4,0.711933 c 1.618e-4,0.391563 4.695e-4,0.71675 6.513e-4,0.722638 1.619e-4,0.0059 0.05785,0.01071 0.1281761,0.01071 h 0.1278834 l 0.0059,-0.294409 0.00598,-0.294409 0.2783497,-0.0044 0.2783497,-0.0044 0.0064,-0.118724 0.00644,-0.118767 H 3.0625546 2.7724538 v -0.192731 -0.192703 h 0.3318786 0.3318785 v -0.118182 z"
       id="path15" /><path
       style="fill:#1c212b;stroke:#000000;stroke-width:0.107058;stroke-linecap:round;stroke-linejoin:round;fill-opacity:1"
       d="m 13.843127,2.83461 -1.018055,0.012741 -1.018055,0.012741 7.52e-4,1.5722925 c 3.24e-4,0.8647606 0.0011,1.5829309 0.0015,1.5959336 3.23e-4,0.013012 0.127762,0.023643 0.283075,0.023643 h 0.28243 l 0.01303,-0.6501978 0.01321,-0.6501958 0.61473,-0.0096 0.61473,-0.0097 0.01414,-0.2622021 0.01422,-0.2622947 h -0.64082 -0.640682 V 3.782184 3.3566012 h 0.732948 0.732948 V 3.0955986 Z"
       id="path15-5" /><path
       style="fill:#000000;fill-opacity:1;stroke:#000000;stroke-width:0.0484755;stroke-linecap:round;stroke-linejoin:round;stroke-opacity:1"
       d="m 6.5194472,10.874876 v 0.728912 0.728869 h 0.1301415 0.1301416 l -0.00702,-0.525209 c -0.00386,-0.28885 -4.369e-4,-0.508051 0.00757,-0.487112 0.00804,0.02094 0.094758,0.257129 0.1927035,0.524875 l 0.178108,0.486818 0.099154,3.25e-4 0.099111,3.23e-4 0.1128707,-0.294408 c 0.062064,-0.161925 0.1494056,-0.395577 0.1941258,-0.519229 l 0.081339,-0.224821 0.0011,0.519229 0.00115,0.519229 H 7.8684124 7.9968816 V 11.604686 10.876695 H 7.827262 7.6576419 l -0.1119918,0.283702 c -0.061596,0.156036 -0.1531533,0.394507 -0.2034936,0.529935 -0.067583,0.181814 -0.095273,0.235029 -0.1057606,0.203409 -0.00781,-0.02355 -0.097714,-0.259614 -0.199813,-0.524582 L 6.850947,10.8874 6.6852164,10.8812 Z"
       id="path14" /><path
       style="fill:#000000;fill-opacity:1;stroke:#000000;stroke-width:0.0484755;stroke-linecap:round;stroke-linejoin:round;stroke-opacity:1"
       d="m 3.6717157,10.871615 v 0.7305 0.730501 h 0.1391751 0.1391746 v -0.268691 -0.26873 l 0.1208159,0.0064 0.120858,0.0064 0.1493791,0.262291 0.1493785,0.262292 h 0.1480408 c 0.1343954,0 0.1462097,-0.0035 0.1279251,-0.03747 -0.011078,-0.02061 -0.087734,-0.155016 -0.1703301,-0.298715 l -0.1501732,-0.261288 0.092587,-0.05424 c 0.22045,-0.129193 0.2472079,-0.4857 0.050267,-0.669403 -0.1058843,-0.09877 -0.2002164,-0.120407 -0.569161,-0.130434 z m 0.2783497,0.240547 H 4.10923 c 0.087556,0 0.1833939,0.0092 0.2129856,0.02045 0.076329,0.02902 0.1255306,0.115177 0.1241202,0.217377 -0.00215,0.155675 -0.1206481,0.233227 -0.3564264,0.233227 h -0.139844 v -0.23553 z"
       id="path13" /><path
       style="fill:#000000;fill-opacity:1;stroke:#000000;stroke-width:0.0484755;stroke-linecap:round;stroke-linejoin:round;stroke-opacity:1"
       d="m 5.598626,10.862414 c -0.098011,4.1e-5 -0.1960553,0.02139 -0.2831585,0.06403 -0.2566201,0.125553 -0.3707063,0.362639 -0.3555902,0.73899 0.00698,0.17378 0.018222,0.22847 0.067873,0.329954 0.071852,0.146861 0.2201137,0.283386 0.3549209,0.326818 0.1435496,0.04625 0.3750336,0.02838 0.5074784,-0.03918 v -4.2e-5 c 0.1358407,-0.0693 0.2061971,-0.145554 0.2801474,-0.30365 0.054918,-0.117406 0.060094,-0.149672 0.060094,-0.374702 0,-0.220348 -0.00586,-0.25861 -0.055493,-0.363995 -0.078012,-0.165653 -0.152552,-0.245568 -0.2933214,-0.31444 -0.08697,-0.04255 -0.184939,-0.06381 -0.2829502,-0.06377 z m 4.615e-4,0.249748 c 0.2224064,0 0.3643978,0.192021 0.3631172,0.491001 -0.001,0.231608 -0.052246,0.350671 -0.1919515,0.445753 -0.085402,0.05812 -0.2344796,0.06368 -0.3381504,0.01258 -0.1334939,-0.0658 -0.1974467,-0.209734 -0.1972623,-0.443995 1.618e-4,-0.187268 0.027692,-0.291489 0.099613,-0.376961 0.073687,-0.08757 0.1577984,-0.128384 0.2646336,-0.128384 z"
       id="path12" /><path
       style="fill:#000000;fill-opacity:1;stroke:#000000;stroke-width:0.0484755;stroke-linecap:round;stroke-linejoin:round;stroke-opacity:1"
       d="M 8.874713,8.3286622 V 8.4464259 8.564189 h 0.2248206 0.224821 v 0.5995223 0.599523 h 0.133822 0.133822 l -0.0048,-0.599523 -0.0047,-0.5995223 h 0.224193 0.2242364 V 8.4464259 8.3286622 H 9.4528466 Z"
       id="path11" /><path
       style="fill:#000000;fill-opacity:1;stroke:#000000;stroke-width:0.0484755;stroke-linecap:round;stroke-linejoin:round;stroke-opacity:1"
       d="M 6.241097,8.3286622 V 9.0459477 9.7632343 H 6.7228561 7.2046147 V 9.6454703 9.5277073 H 6.8620307 6.5194472 V 9.3457093 9.1637113 H 6.8192073 7.118969 V 9.0459477 8.928185 H 6.8192073 6.5194472 V 8.746187 8.564189 h 0.331878 0.3318781 V 8.4464259 8.3286622 H 6.7121506 Z"
       id="path10" /><path
       style="fill:#000000;fill-opacity:1;stroke:#000000;stroke-width:0.0484755;stroke-linecap:round;stroke-linejoin:round;stroke-opacity:1"
       d="m 5.0420529,8.3286622 v 0.7172855 0.7172866 l 0.4656997,-4.2e-5 0.4657006,-8.1e-5 v -0.11768 -0.117722 H 5.6469282 5.3204021 V 8.9281875 8.3286647 H 5.1812275 Z"
       id="path9" /><path
       style="fill:#000000;fill-opacity:1;stroke:#000000;stroke-width:0.0484755;stroke-linecap:round;stroke-linejoin:round;stroke-opacity:1"
       d="m 3.8001848,8.3286622 v 0.722639 0.7226381 l 0.4657002,-0.0044 0.4657008,-0.0045 0.0064,-0.118683 0.00644,-0.118725 H 4.4114572 4.078533 V 9.3456652 9.1636672 H 4.3782942 4.6780553 V 9.0459432 8.9281805 H 4.3782957 4.0785345 V 8.7461825 8.5641845 H 4.3997076 4.7208803 V 8.4464209 8.3286577 H 4.2605325 Z"
       id="path8" /><path
       style="fill:#000000;fill-opacity:1;stroke:#000000;stroke-width:0.0484755;stroke-linecap:round;stroke-linejoin:round;stroke-opacity:1"
       d="m 8.0859163,8.299556 c -0.09293,0.0016 -0.1865639,0.019866 -0.2616214,0.054407 -0.2445774,0.1125625 -0.3626587,0.3083212 -0.3794281,0.6289217 -0.018919,0.3617413 0.1140675,0.6323406 0.36914,0.7511176 0.1297507,0.06042 0.3582997,0.06851 0.5067253,0.01794 C 8.455895,9.7058923 8.5719547,9.6025543 8.6310319,9.4756833 8.7044569,9.318 8.7021579,9.3135183 8.5481879,9.3140514 8.4187372,9.3145369 8.4133166,9.3167614 8.3822489,9.3831364 8.3087125,9.5402063 8.0341666,9.5939503 7.8853091,9.4804113 7.7613031,9.3858271 7.7291967,9.2942517 7.7291967,9.0352437 c 0,-0.1989883 0.00598,-0.2352783 0.052107,-0.3158196 0.068737,-0.1200153 0.1997173,-0.1864105 0.3371889,-0.1709157 0.1167691,0.013162 0.1952863,0.066702 0.2530493,0.1725886 0.042362,0.077661 0.044261,0.078522 0.1789452,0.078578 l 0.1361634,4.21e-5 -0.01468,-0.058882 C 8.6284817,8.5663805 8.5034025,8.4156868 8.3433546,8.34489 8.2710948,8.3129244 8.1788445,8.2979286 8.0859143,8.299557 Z"
       id="path7" /><path
       style="fill:#000000;fill-opacity:1;stroke:#000000;stroke-width:0.0484755;stroke-linecap:round;stroke-linejoin:round;stroke-opacity:1"
       d="m 2.9396264,8.2916498 c -0.090807,0.00266 -0.1793711,0.020943 -0.2486583,0.056288 -0.1788756,0.091256 -0.2570214,0.2406794 -0.2337702,0.4469657 0.00909,0.080672 0.02702,0.1143096 0.094387,0.1771465 0.085963,0.080185 0.1662657,0.1160737 0.4268083,0.1908632 0.1948409,0.055931 0.2650925,0.1094737 0.2650925,0.2020296 0,0.1304255 -0.1580769,0.2191845 -0.3420404,0.1920345 -0.1010091,-0.01491 -0.2146588,-0.1032092 -0.2146588,-0.1667752 0,-0.027281 -0.02672,-0.033789 -0.1391751,-0.033789 -0.1233391,0 -0.1391746,0.00471 -0.1391746,0.041445 0,0.1102992 0.1005909,0.2522832 0.2246535,0.3170322 0.1131347,0.05905 0.1677878,0.06865 0.3534574,0.06223 0.1469881,-0.0051 0.2033553,-0.01727 0.2930699,-0.06331 C 3.5013912,9.5999833 3.5796668,9.3882747 3.4750396,9.1852891 3.4101915,9.0594824 3.3256691,9.0062773 3.0634951,8.9261769 2.8153243,8.8503543 2.7571289,8.8186893 2.7286895,8.7438868 c -0.044,-0.1157245 0.07046,-0.2225216 0.2384954,-0.2225216 0.1199787,0 0.203915,0.049346 0.2363215,0.1389661 0.026815,0.074157 0.028769,0.07515 0.1513025,0.07515 h 0.1242033 l -8.11e-5,-0.069588 C 3.4788504,8.5865855 3.4191128,8.4780428 3.3338183,8.4021385 3.2485974,8.3262994 3.0909744,8.2872527 2.9396289,8.2916523 Z"
       id="path6" /><path
       style="fill:#2faa97;stroke:#2faa97;stroke-width:0.0484755;stroke-linecap:round;stroke-linejoin:round;fill-opacity:1;stroke-opacity:1"
       d="M 8.7676558,2.7677904 V 4.4057707 6.0437515 H 9.8168196 10.865984 V 5.7654018 5.4870516 H 10.170109 9.4742356 V 4.127421 2.7677904 h -0.35329 z"
       id="path3" /><path
       style="fill:#2faa97;stroke:#2faa97;stroke-width:0.0484755;stroke-linecap:round;stroke-linejoin:round;fill-opacity:1;stroke-opacity:1"
       d="M 6.6217787,2.7296927 C 6.4770066,2.7359054 6.3357838,2.7562422 6.230391,2.7892855 5.8352942,2.9131602 5.5303339,3.1630314 5.3658594,3.4976636 5.2138194,3.8069979 5.1839125,3.9582608 5.1842387,4.4164767 c 2.43e-4,0.3698454 0.00416,0.4088415 0.058714,0.5880217 0.091945,0.3018559 0.1895229,0.4674602 0.3979947,0.6755077 0.2982911,0.2976844 0.5913415,0.4128727 1.0497913,0.4126322 0.2123708,-8.06e-5 0.2683161,-0.00802 0.4068188,-0.057376 0.088322,-0.03148 0.1716889,-0.059319 0.1852597,-0.061851 0.013568,-0.00256 0.088475,0.079707 0.1664826,0.1827505 l 0.1418516,0.187351 h 0.3205874 c 0.1763339,0 0.3206285,-0.00596 0.3206285,-0.013257 0,-0.0073 -0.099606,-0.1494257 -0.2213072,-0.3158196 C 7.8893594,5.8480414 7.7827461,5.6996995 7.7741114,5.6848154 7.7643714,5.668021 7.7979804,5.6133488 7.8627262,5.5407062 8.0783317,5.2988023 8.206906,4.9391302 8.2263039,4.5235339 8.2403276,4.2231119 8.2077307,3.9588415 8.1270667,3.718804 8.0457844,3.4769196 7.9510645,3.3233369 7.7705561,3.1407352 7.5823494,2.9503475 7.3134466,2.8093777 7.0344099,2.7547842 6.9148511,2.7313912 6.7665513,2.7234799 6.6217787,2.7296927 Z m 0.079917,0.5719216 c 0.1085557,6.62e-5 0.2172087,0.015327 0.2986318,0.045794 0.14596,0.054611 0.3243982,0.2133067 0.4036824,0.3589777 0.1906337,0.3502567 0.194926,1.019451 0.00886,1.3855583 L 7.3615187,5.1930217 7.2275713,5.0074694 7.093624,4.8219588 6.8118868,4.8362631 c -0.154963,0.00787 -0.2854858,0.017546 -0.2900592,0.021494 -0.00456,0.00396 0.089371,0.1431107 0.2087624,0.3092536 0.1193925,0.1661435 0.217084,0.3097878 0.217084,0.3192492 0,0.028483 -0.08735,0.043053 -0.2569378,0.042823 C 6.5710977,5.528921 6.4986124,5.5159108 6.4065736,5.4780637 6.2414552,5.4101628 6.1544426,5.3404493 6.0648678,5.204356 5.9260825,4.9934958 5.8548488,4.7156055 5.8563985,4.3909693 c 0.00246,-0.5196398 0.211457,-0.918306 0.5471228,-1.0438952 0.08116,-0.030367 0.1896156,-0.045523 0.2981719,-0.045458 z"
       id="path2" /><path
       style="fill:#2faa97;stroke:#2faa97;stroke-width:0.0484755;stroke-linecap:round;stroke-linejoin:round;fill-opacity:1;stroke-opacity:1"
       d="M 3.6069794,2.7289401 C 3.4487081,2.7225701 3.2873695,2.7304901 3.1707201,2.7546181 2.8216182,2.8268141 2.5546559,3.0204802 2.4239937,3.2963458 2.3580617,3.435547 2.3549077,3.4540855 2.3549077,3.699192 c 0,0.3061718 0.030999,0.3938117 0.2040367,0.5767726 C 2.6918952,4.4165401 2.916447,4.5329465 3.2434851,4.6308434 3.3671369,4.6678594 3.5598403,4.7258984 3.6717154,4.759814 3.783591,4.793729 3.9197148,4.849849 3.9742367,4.8845194 4.2178605,5.0394396 4.1752781,5.350052 3.8913093,5.4893523 3.8028884,5.5327263 3.7570363,5.5394 3.5432466,5.5399542 3.3205601,5.5405053 3.2853629,5.5351443 3.1753616,5.4835815 3.0297228,5.4153094 2.9310342,5.2924437 2.9101854,5.153418 L 2.8960064,5.0588228 H 2.5665538 2.2371428 v 0.070047 c 0,0.1039067 0.07063,0.3396314 0.13378,0.4464627 0.148372,0.2510001 0.4868356,0.4512555 0.8624824,0.5102801 0.1921604,0.030192 0.5728977,0.010281 0.7661723,-0.040062 0.3450862,-0.089885 0.573526,-0.266307 0.7147764,-0.5520579 0.079452,-0.1607313 0.081464,-0.1705074 0.081464,-0.4014237 0,-0.2123283 -0.00598,-0.2493272 -0.057794,-0.3598971 C 4.6174269,4.4748309 4.3684244,4.3103499 3.8858291,4.1693255 3.2303084,3.9777674 3.0972263,3.9167652 3.0228446,3.7735889 2.9432197,3.6203204 3.0152741,3.4300394 3.1864003,3.3417201 c 0.1117488,-0.057675 0.3954234,-0.077386 0.5655651,-0.039311 0.1540832,0.034481 0.2862514,0.1600083 0.3232634,0.306996 l 0.025302,0.1004917 h 0.32088 0.3208795 v -0.059718 c 0,-0.08594 -0.056703,-0.2911945 -0.1084797,-0.3926838 C 4.5290245,3.0520978 4.3000772,2.8759127 4.0250047,2.7889934 3.9204897,2.7559706 3.7652496,2.7353107 3.6069784,2.7289406 Z"
       id="path1" /></g></svg>
